<svg width="24" height="24" viewBox="0 0 24 24" fill="rgb(200,200,200)" xmlns="http://www.w3.org/2000/svg">
  <path d="M10.5 2C15.1944 2 19 5.80558 19 10.5C19 12.4519 18.3486 14.2465 17.2417 15.6826L21.7071 20.1481C22.0976 20.5386 22.0976 21.1718 21.7071 21.5623C21.3166 21.9528 20.6834 21.9528 20.2929 21.5623L15.8275 17.0969C14.3914 18.2038 12.5968 18.8552 10.6449 18.8552C5.95044 18.8552 2.14486 15.0496 2.14486 10.3552C2.14486 5.66074 5.95044 2 10.5 2ZM10.5 4C6.91015 4 4 6.91015 4 10.5C4 14.0899 6.91015 17 10.5 17C14.0899 17 17 14.0899 17 10.5C17 6.91015 14.0899 4 10.5 4Z"/>
</svg>
