<svg width="30" height="40" viewBox="0 0 168 168" xmlns="http://www.w3.org/2000/svg">
  <circle fill="white" cx="84" cy="84" r="84"/>
  <path fill="black" d="M122.2 112.5c-1.7 2.7-5.2 3.5-7.9 1.9-21.7-13.2-49-16.2-81.3-8.7-3.1.7-6.3-1.2-7.1-4.4-.7-3.1 1.2-6.3 4.4-7.1 36.4-8.4 68.7-5 93.4 10.1 2.7 1.6 3.5 5.2 1.9 7.9zm11.2-22.2c-2.1 3.3-6.4 4.3-9.7 2.2-24.9-15.3-62.9-19.8-92.4-10.6-3.7 1.1-7.6-.9-8.7-4.6-1.1-3.7.9-7.6 4.6-8.7 35-10.5 77.7-5.5 106.7 12.2 3.3 2 4.3 6.4 2.2 9.5zM136 67c-28.5-17.1-75.6-18.7-102.7-10-4.3 1.4-9-1-10.4-5.3-1.4-4.3 1-9 5.3-10.4 32.5-10.1 85.7-8.1 119.2 11.6 4 2.4 5.3 7.6 2.9 11.6-2.4 4-7.6 5.3-11.6 2.5z"/>
</svg>
